<svg width="67" height="66" viewBox="0 0 67 66" fill="none" xmlns="http://www.w3.org/2000/svg">
<path d="M30.0525 24.249C28.2144 24.0418 26.9807 25.1832 24.6917 23.8307C24.0651 23.461 26.2581 22.5997 27.0265 21.8664C27.7948 21.1336 26.253 20.0671 26.9618 18.3583C27.6706 16.6496 28.5776 13.5464 28.1623 12.9448C27.7466 12.343 26.7034 12.7155 24.7799 12.6986C22.8558 12.682 21.3909 11.7472 20.5616 12.7161C20.2944 13.0278 19.5638 13.7473 18.9812 12.8606C18.3991 11.9741 17.5731 12.3623 17.5758 13.2719C17.5785 14.1816 16.4515 14.8364 14.5911 14.9705C13.4104 15.0555 10.0293 15.6526 7.71427 16.0785L6.61924 12.5147C6.61924 12.5147 10.1964 10.7058 12.4107 10.3076C13.8416 10.0508 15.3151 9.33486 16.0256 8.93646C17.5173 8.09988 18.1376 7.17793 18.8385 8.06741C19.5395 8.95647 19.8536 9.40138 20.3727 8.46856C20.6375 7.99272 20.5569 7.0988 21.5625 7.70644C22.568 8.3145 26.9973 6.85449 28.7466 6.51048C32.0338 5.86333 35.0168 5.55911 41.4312 10.6746C42.6258 11.6273 47.7827 15.506 48.4599 16.4262C49.1368 17.3462 50.3361 17.2188 50.6452 18.0877C51.1331 19.4601 52.0366 19.3071 52.9199 19.5682C53.8031 19.8292 59.8352 24.7918 59.8352 24.7918L58.2599 27.51C56.5864 26.6845 53.0948 24.9268 51.8499 24.0292C50.1879 22.8317 49.3965 21.4908 49.0218 21.0414C48.6466 20.5923 48.4629 21.4935 47.9154 21.4394C47.3681 21.3848 47.5057 20.3656 47.4701 19.993C47.4349 19.6205 46.9691 19.1684 46.1141 19.8414C45.2592 20.5141 43.2467 18.9525 42.621 18.3998C41.995 17.8464 41.132 17.0458 40.4609 17.3076C39.9115 17.522 39.1179 18.1407 39.1155 19.5207C39.113 20.9008 38.6155 22.2485 38.0751 22.9454C37.1982 24.0749 37.2585 26.5595 37.4065 28.1551C36.311 28.1275 34.2737 27.96 32.0823 27.753C31.857 26.451 31.3041 24.3897 30.0525 24.249Z" fill="#0E5EA1"/>
<path d="M22.1437 23.7097C22.2521 21.6897 24.7905 21.0934 25.0431 20.0594C25.2956 19.0253 26.0213 15.8758 26.6283 14.352C25.5686 14.5146 23.411 14.0918 21.2604 14.4403C20.3394 14.5895 20.5161 15.4925 20.0378 15.4163C19.1489 15.2742 19.4433 13.6374 18.4849 14.9153C18.2649 15.2085 17.9412 15.6839 16.0876 15.7517C14.6331 15.8049 7.97999 16.9417 7.97999 16.9417L7.71427 16.0785C10.0293 15.6526 13.4104 15.0555 14.5911 14.9705C16.4515 14.8364 17.5785 14.1816 17.5758 13.2719C17.5731 12.3623 18.3991 11.9741 18.9812 12.8606C19.5638 13.7473 20.2944 13.0278 20.5616 12.7161C21.3909 11.7472 22.8558 12.682 24.7799 12.6986C26.7034 12.7155 27.7466 12.343 28.1623 12.9448C28.5776 13.5464 27.6706 16.6496 26.9618 18.3583C26.253 20.0671 27.7948 21.1336 27.0265 21.8664C26.2581 22.5997 24.0651 23.461 24.6917 23.8307C26.9807 25.1832 28.2144 24.0418 30.0525 24.249C31.3041 24.3897 31.857 26.451 32.0823 27.753C27.9767 27.3654 23.3312 26.84 23.3312 26.84C23.3312 26.84 22.083 24.8371 22.1437 23.7097Z" fill="#F79647"/>
<path d="M38.0751 22.9454C38.6155 22.2485 39.113 20.9008 39.1155 19.5207C39.1179 18.1407 39.9115 17.522 40.4609 17.3076C41.132 17.0458 41.995 17.8464 42.621 18.3998C43.2467 18.9525 45.2592 20.5141 46.1141 19.8414C46.9691 19.1684 47.4349 19.6205 47.4701 19.993C47.5057 20.3656 47.3681 21.3848 47.9154 21.4394C48.4629 21.4935 48.6466 20.5923 49.0218 21.0414C49.3965 21.4908 50.1879 22.8317 51.8499 24.0292C53.0948 24.9268 56.5864 26.6845 58.2599 27.51L57.7961 28.3108C57.7961 28.3108 50.6911 24.8389 48.4497 22.7474C47.959 22.2899 47.8188 22.3043 47.3351 22.3616C46.2235 22.4941 46.5946 21.4399 45.9927 21.1838C45.6418 21.0342 45.048 21.5127 44.7373 21.3098C43.9311 20.7826 41.937 19.422 40.6768 18.8026C40.6768 18.8026 40.286 20.9298 39.9792 22.4428C39.6725 23.9558 38.5374 23.1442 38.7635 24.7336C38.9895 26.323 38.8884 27.776 38.2226 28.1128C38.1401 28.1544 37.8505 28.1662 37.4065 28.1551C37.2585 26.5595 37.1982 24.0749 38.0751 22.9454Z" fill="#F79647"/>
<path d="M59.6506 26.2829C59.6506 26.2829 53.4579 21.82 52.6701 21.2766C51.8823 20.7328 50.8654 21.0464 50.3159 20.2331C49.7665 19.4195 50.2747 18.653 49.5771 18.3501C48.8789 18.0474 48.6913 18.3471 48.2812 18.1148C47.8706 17.8825 39.776 11.1342 39.776 11.1342L40.5214 10.6937C40.5214 10.6937 47.2616 15.9917 47.905 16.7312C48.5483 17.4707 49.3818 17.7519 49.7507 17.7785C50.1201 17.8048 50.3993 18.658 50.6062 19.3803C50.8131 20.1031 51.469 20.2021 52.2308 20.3507C52.9923 20.4997 53.3479 20.7719 54.3345 21.4937C55.3211 22.215 59.8192 25.8765 59.8192 25.8765L59.6506 26.2829Z" fill="white"/>
<path d="M32.7617 7.4906C32.7617 7.4906 25.8268 9.16149 24.662 9.30905C23.4968 9.45691 22.4511 8.92431 21.9719 9.4687C21.4928 10.0131 21.1671 10.9503 20.3231 10.6948C19.4791 10.4393 19.0828 9.65857 18.5399 9.74519C17.9971 9.83181 17.6604 11.0068 16.1028 11.4022C14.5451 11.798 6.48402 14.1293 6.48402 14.1293L6.29047 13.3076C6.29047 13.3076 15.3693 10.8805 16.0785 10.5445C16.7877 10.2085 17.5571 9.67013 18.1178 9.14036C18.7558 8.53741 19.9509 10.3702 20.5952 9.88637C21.2396 9.40208 21.0039 8.59526 22.0865 8.58145C23.1691 8.56723 24.6897 8.56604 26.1818 8.17612C27.6739 7.78577 32.2675 6.78972 32.2675 6.78972L32.7617 7.4906Z" fill="white"/>
<path d="M37.5219 11.8012C37.5219 11.8012 37.18 13.9067 37.2622 14.9167C37.3443 15.9271 36.6082 16.2884 35.7421 16.7927C34.8758 17.2975 34.2466 17.7095 35.0925 18.7114C35.9378 19.7137 35.9678 20.5263 34.8453 21.0929C33.7234 21.6592 34.3064 22.2489 34.3049 23.3642C34.3033 24.4799 33.1471 28.4709 33.1471 28.4709L31.4236 27.7598C31.4236 27.7598 32.278 26.3407 32.7227 24.9121C32.9891 24.0551 33.1438 22.728 33.0528 22.4548C32.7251 21.4707 32.4129 20.7523 33.2091 20.2648C34.2283 19.6408 33.6717 19.0153 33.0721 18.1719C32.4725 17.3281 33.5062 16.4821 34.2398 15.8718C34.9739 15.2617 35.7983 14.8811 35.9435 13.7691C36.0886 12.6575 36.0062 11.27 36.0062 11.27L37.5219 11.8012Z" fill="white"/>
<path d="M22.9935 26.2473C26.1265 24.9832 36.1129 27.4518 36.1129 27.4518L35.8965 31.4543C33.8455 31.0632 30.7409 30.5623 29.2095 30.7715C26.8066 31.0998 23.2533 34.4046 22.3976 35.3159C21.2268 36.5617 20.7959 37.6288 20.5278 38.2473C20.2598 38.8659 20.7864 39.4134 21.2709 39.4818C21.9009 39.5707 22.645 39.9105 21.8704 40.8159C21.0964 41.7211 21.1552 42.1278 22.1269 42.4767C23.0647 42.8133 24.4169 45.2612 24.5501 46.4659C24.6379 47.2629 25.4266 49.6898 25.9506 51.2413L21.9876 53.0208C21.9876 53.0208 21.5623 52.0273 21.399 50.9997C21.1732 49.5769 19.6633 49.6604 19.4101 48.7374C19.2824 48.2738 20.3196 47.7304 19.5081 47.2041C18.5818 46.6028 17.715 46.0793 18.0166 44.3821C18.1612 43.5674 15.0096 38.0944 15.0511 36.3121C15.0765 35.2298 19.9117 27.4904 22.9935 26.2473Z" fill="#7C2887"/>
<path d="M22.1269 42.4767C21.1552 42.1278 21.0964 41.7211 21.8704 40.8159C22.645 39.9105 21.9009 39.5707 21.2709 39.4818C20.7864 39.4134 20.2598 38.8659 20.5278 38.2473C20.7959 37.6288 21.2268 36.5617 22.3976 35.3159C23.2533 34.4046 26.8066 31.0998 29.2095 30.7715C30.7409 30.5623 33.8455 31.0632 35.8965 31.4543L35.8213 32.8483C35.8213 32.8483 28.5781 33.2654 27.5069 33.629C26.4351 33.9929 23.6379 35.5263 23.7602 36.3863C23.9517 37.7298 22.656 37.5786 22.8979 38.4747C23.0262 38.9493 23.7219 39.3596 24.047 39.9719C24.2853 40.4195 23.0151 40.8571 23.3324 41.4781C23.631 42.062 24.8622 43.9384 25.2389 44.8232C25.8473 46.2532 26.9387 50.7976 26.9387 50.7976L25.9506 51.2413C25.4266 49.6898 24.6379 47.2629 24.5501 46.4659C24.4169 45.2612 23.0647 42.8133 22.1269 42.4767Z" fill="#62216B"/>
<path d="M33.5229 30.7181C32.6924 26.2093 36.9794 26.0472 38.2298 26.4929C39.4802 26.9385 40.1519 28.94 40.696 30.1414C41.2406 31.343 43.0996 37.7312 43.4725 38.0479C43.8456 38.3641 44.3804 38.1887 44.8273 38.9694C45.2745 39.7503 44.4306 40.3649 44.9417 40.519C45.8852 40.8034 45.9258 41.4189 45.6741 42.3701L41.501 44.4419C40.7608 43.9907 39.6503 43.2488 39.6877 42.8769C39.7621 42.1392 40.013 41.5964 39.45 41.6939C38.8869 41.7918 39.1413 41.3308 39.5614 40.8911C39.9811 40.4514 41.7468 39.8598 42.4766 39.6896C43.206 39.5193 42.7714 38.978 41.7372 38.9284C41.1244 38.8993 40.1864 39.4986 38.9536 39.1366C37.7208 38.7747 37.1206 36.5829 36.0663 35.3459C35.5158 34.7008 34.9865 34.3215 34.6047 34.1054C34.1284 33.007 33.7331 31.8576 33.5229 30.7181Z" fill="#7C2887"/>
<path d="M38.9536 39.1366C40.1864 39.4986 41.1244 38.8993 41.7372 38.9284C42.7714 38.978 43.206 39.5193 42.4766 39.6896C41.7468 39.8598 39.9811 40.4514 39.5614 40.8911C39.1413 41.3308 38.8869 41.7918 39.45 41.6939C40.013 41.5964 39.7621 42.1392 39.6877 42.8769C39.6503 43.2488 40.7608 43.9907 41.501 44.4419L39.7706 45.3007C39.7706 45.3007 38.7699 45.0055 38.8573 43.5425C38.8987 42.8538 37.722 43.139 37.7366 42.4178C37.7506 41.7208 38.4441 41.9544 38.2642 40.9224C38.1294 40.1512 36.0129 37.3522 34.6047 34.1054C34.9865 34.3215 35.5158 34.7008 36.0663 35.3459C37.1206 36.5829 37.7208 38.7747 38.9536 39.1366Z" fill="#62216B"/>
<path d="M22.1541 44.0332C22.1706 44.5433 20.4903 46.2229 20.1625 46.6064C19.8351 46.9901 18.9328 45.9577 19.6988 45.1421C20.4647 44.3264 22.1228 43.0775 22.1541 44.0332Z" fill="#62216B"/>
<path d="M41.5324 8.60394L41.4312 10.6746C41.4312 10.6746 39.0631 12.9822 36.0062 11.27C32.9494 9.55739 31.3798 6.26467 31.3798 6.26467C31.3798 6.26467 31.9448 4.66326 33.0456 3.03246C34.1462 1.40208 35.8711 -0.303055 37.5622 1.07164C39.1001 2.32264 41.7723 4.13179 41.5324 8.60394Z" fill="#F79647"/>
<path d="M41.0257 8.74903L40.8821 9.82445C40.8821 9.82445 38.8695 10.9712 37.0744 10.3222C35.2792 9.67322 33.9432 7.67078 33.7628 6.72707C33.4963 5.33271 34.2972 2.82194 35.7133 2.78507C37.1293 2.7482 42.1571 5.06075 41.0257 8.74903Z" fill="#421B4A"/>
<path d="M34.6503 4.68561C34.1228 6.34539 35.1192 8.84379 36.4122 9.6901C38.2488 10.892 40.4828 9.51112 41.5708 8.04128C42.6585 6.57132 43.955 4.34911 41.7362 2.41358C39.3584 0.338804 35.5263 1.93036 34.6503 4.68561Z" fill="#F9AA6D"/>
<path d="M34.7701 4.58454C34.7701 4.58454 35.1622 -0.134898 39.4025 0.00295878C44.3887 0.165045 44.2943 5.38509 43.1683 6.76077C42.0427 8.13657 38.3555 4.57898 36.6438 4.20567C35.5385 4.98999 34.7701 4.58454 34.7701 4.58454Z" fill="#421B4A"/>
<path d="M35.3909 2.44766C35.3909 2.44766 34.6378 4.05511 34.6503 4.68561C35.5343 4.73736 36.9351 5.06485 36.9351 5.06485L38.0432 3.13847C38.0432 3.13847 36.3533 2.35787 35.3909 2.44766Z" fill="#FBC62C"/>
<path d="M43.3666 5.99847C43.3153 5.08709 42.4651 4.13728 40.2453 3.03046C39.5852 2.70099 39.04 2.53863 38.6128 2.51086C37.9612 2.46858 37.0348 3.12834 36.5817 4.15424C36.1182 5.20356 37.0467 6.18382 37.4774 6.45456C38.1506 6.87741 39.9262 6.87997 40.2582 7.08994C40.5896 7.30021 40.3413 8.62254 40.414 8.87366C40.4863 9.12467 41.1525 9.63141 41.5324 8.60394C41.9114 7.57625 39.1029 4.91831 38.3833 4.6686C38.1871 4.60021 38.0152 4.4458 37.8549 4.28409L38.4403 3.77044C38.9835 4.22709 39.6684 4.79982 40.1808 5.21886C41.1724 6.02956 42.7591 7.02724 42.7591 7.02724C42.7591 7.02724 43.4185 6.90953 43.3666 5.99847Z" fill="#62216B"/>
<path d="M40.9029 3.96297L37.6618 5.90571C37.7893 6.0049 37.9316 6.09674 38.1076 6.16783C38.1583 6.18866 38.2076 6.20502 38.2566 6.22223L41.4318 4.31871C41.2803 4.2086 41.1009 4.08739 40.9029 3.96297Z" fill="#80D6F7"/>
<path d="M38.5128 2.97395C38.002 2.96125 37.1938 3.81752 37.0627 4.40008C37.0324 4.5351 37.028 4.69918 37.0523 4.8732L39.6727 3.30238C39.2463 3.11406 38.8333 2.98219 38.5128 2.97395Z" fill="#80D6F7"/>
<path d="M42.0063 4.79912L39.3139 6.41296C39.8549 6.4351 40.2737 6.38386 40.6366 6.69241C41.2307 7.19837 40.9489 8.08189 41.0257 8.74903C41.1028 9.41629 42.5384 7.65397 42.7591 7.02724C43.074 6.13362 42.8513 5.58541 42.0063 4.79912Z" fill="#80D6F7"/>
<path d="M39.6727 3.30238L37.0523 4.8732C37.1013 5.22316 37.2841 5.61171 37.6618 5.90571L40.9029 3.96297C40.5296 3.72886 40.0949 3.48818 39.6727 3.30238Z" fill="white"/>
<path d="M41.7307 4.55187C41.6528 4.4845 41.55 4.40503 41.4318 4.31871L38.2566 6.22223C38.6573 6.36255 39.0057 6.40082 39.3139 6.41296L42.0063 4.79912C41.92 4.7191 41.8296 4.63752 41.7307 4.55187Z" fill="white"/>
<path d="M7.97999 16.9417C7.97999 16.9417 5.86524 17.4041 5.32841 17.5632C4.57563 17.7868 3.53621 17.3733 4.55004 16.6963C5.13478 16.3057 5.26306 15.81 4.17157 16.0761C2.9653 16.3701 1.36371 17.3912 0.269302 16.1123C-0.825425 14.8329 1.67376 13.3429 3.1724 12.952C4.67103 12.5612 6.61924 12.5147 6.61924 12.5147L7.97999 16.9417Z" fill="#7C2887"/>
<path d="M46.4828 43.9034C46.4828 43.9034 45.4546 41.0262 43.0878 41.6639C40.8582 42.2649 39.9117 43.3523 39.7801 44.863C39.6719 46.1069 39.7439 46.8323 39.7439 46.8323L46.4828 43.9034Z" fill="#7C2887"/>
<path d="M46.1473 43.3069C46.1473 43.3069 44.5504 43.2077 43.2373 43.6275C40.8258 44.3982 39.8074 46.1238 39.8074 46.1238L40.0371 46.7154L46.4828 43.9034L46.1473 43.3069Z" fill="white"/>
<path d="M46.2243 44.031C46.2243 44.031 44.6426 41.63 42.3542 42.5082C40.0293 43.4005 40.0371 46.7154 40.0371 46.7154L39.4055 46.967C39.4055 46.967 38.3189 43.3463 41.6763 41.5937C44.9282 39.8959 46.765 43.7641 46.765 43.7641L46.2243 44.031Z" fill="#421B4A"/>
<path d="M28.1447 51.8486C28.1447 51.8486 27.1163 48.9709 24.7499 49.6092C22.5198 50.21 21.5739 51.2971 21.4422 52.8083C21.3341 54.0517 21.406 54.7776 21.406 54.7776L28.1447 51.8486Z" fill="#7C2887"/>
<path d="M27.8094 51.2521C27.8094 51.2521 26.2125 51.1529 24.8994 51.5723C22.4879 52.343 21.4695 54.069 21.4695 54.069L21.6992 54.6606L28.1447 51.8486L27.8094 51.2521Z" fill="white"/>
<path d="M27.8863 51.9762C27.8863 51.9762 26.3043 49.5751 24.0163 50.4534C21.6913 51.3458 21.6992 54.6606 21.6992 54.6606L21.0677 54.9118C21.0677 54.9118 19.981 51.2916 23.3381 49.5384C26.5898 47.841 28.427 51.7093 28.427 51.7093L27.8863 51.9762Z" fill="#421B4A"/>
<path d="M4.16493 59.5062C6.31002 60.2828 8.74386 60.2753 10.9879 59.2931L60.6311 37.5699C62.8755 36.5878 64.5204 34.8107 65.3861 32.7164C65.3861 32.7164 65.8955 32.7419 66.4131 32.9848C65.4636 35.3772 63.6072 37.4124 61.0582 38.5278L11.4149 60.2514C8.79494 61.3979 5.94342 61.354 3.47261 60.361C3.76382 59.9545 4.16493 59.5062 4.16493 59.5062Z" fill="#421B4A"/>
<path d="M59.8352 24.7918C59.8352 24.7918 64.1618 25.4855 65.1478 25.7041C66.1341 25.9223 66.8371 27.2815 64.9189 27.9356C63.0007 28.5902 61.9063 28.3272 61.5914 28.3227C61.2763 28.3187 61.2026 28.6655 61.5926 29.0148C61.9827 29.3645 62.1968 30.3913 61.1816 30.0059C60.1661 29.6209 57.7961 28.3108 57.7961 28.3108L59.8352 24.7918Z" fill="#7C2887"/>
<path d="M6.82073 57.4129C7.14847 57.3775 7.69112 58.0959 7.66825 58.3119C7.68532 58.4009 7.64012 58.4949 7.56318 58.5411C7.43607 58.6168 7.30891 58.5908 7.19173 58.5174C7.03395 58.4463 6.85299 58.1341 6.67589 57.7787C6.59582 57.6177 6.60914 57.4357 6.82073 57.4129Z" fill="#87F1FF"/>
<path d="M2.39928 55.4895C3.12005 55.4244 3.84086 56.3449 4.29583 56.856C4.63974 57.2421 5.27213 57.9123 5.40422 58.6087C5.47315 58.9708 5.2352 59.2498 4.74099 58.9309C4.43942 58.7363 2.91378 57.4854 2.4163 56.5831C2.19938 56.2695 1.90124 55.5344 2.39928 55.4895Z" fill="#87F1FF"/>
<path d="M7.077 52.8255C7.93293 53.5285 8.6 54.4681 8.99335 55.5027C9.09849 55.7449 9.21236 56.3023 9.2762 56.6342C9.29662 56.7412 9.14617 56.7546 9.09188 56.6841C8.56818 56.0002 8.02926 55.3306 7.54617 54.6174C7.23208 54.1539 6.59929 53.4954 6.78014 52.9036C6.82138 52.7683 6.87951 52.6634 7.077 52.8255Z" fill="#87F1FF"/>
<path d="M5.90162 53.3048C6.1443 53.4579 6.4959 53.7797 6.49342 54.0824C6.49222 54.2176 6.34131 54.3108 6.22113 54.2384C5.93657 54.0669 5.7424 53.8193 5.63609 53.5068C5.58614 53.3607 5.77053 53.2223 5.90162 53.3048Z" fill="#87F1FF"/>
<path d="M8.25804 45.4115C8.74994 45.5812 9.78668 46.4934 9.60841 47.4268C9.47686 48.1162 7.08297 47.5335 6.82312 47.453C6.34749 47.3057 5.83201 47.1816 5.39068 46.9418C4.10801 46.2451 5.19193 44.3547 8.25804 45.4115Z" fill="#87F1FF"/>
<path d="M8.28783 41.4506C8.68879 41.4031 9.12071 41.5541 9.33646 41.9095C9.73264 42.562 9.44944 43.3729 9.18176 44.0105C9.12762 44.1395 9.01373 44.4102 8.69269 44.1797C8.19734 43.8244 7.57682 43.1777 7.51789 42.1369C7.49441 41.7274 7.91278 41.4946 8.28783 41.4506Z" fill="#87F1FF"/>
<path d="M13.8371 43.9088C14.2324 43.8742 14.4895 44.5604 14.5944 44.8273C14.7457 45.2128 14.968 46.2901 14.8948 46.8688C14.8797 46.9844 14.692 46.9504 14.6384 46.8619C14.4221 46.5069 13.395 44.9259 13.4928 44.2129C13.5087 44.0994 13.7203 43.919 13.8371 43.9088Z" fill="#87F1FF"/>
<path d="M12.0095 43.0213C12.1552 43.2328 12.4901 43.9068 12.0921 44.0196C11.7679 44.1115 11.4541 43.5402 11.4223 43.343C11.3962 43.1793 11.3931 42.9721 11.5522 42.8734C11.724 42.7668 11.9087 42.875 12.0095 43.0213Z" fill="#87F1FF"/>
<path d="M59.0588 65.0766L59.2751 65.2501L59.0476 65.0862L59.0588 65.0766Z" fill="#FBC62C"/>
<path d="M58.1739 64.3577L58.5562 64.732L58.1103 64.4102C58.1496 64.3783 58.1739 64.3577 58.1739 64.3577Z" fill="#FBC62C"/>
</svg>
